<svg xmlns="http://www.w3.org/2000/svg" viewBox="0 0 120 120" role="img" aria-label="">
  <defs>
    <linearGradient id="bg" x1="0" y1="0" x2="1" y2="1">
      <stop offset="0" stop-color="#4d3426"/>
      <stop offset="1" stop-color="#241710"/>
    </linearGradient>
  </defs>
  <rect width="120" height="120" rx="22" fill="url(#bg)"/>
  <g fill="none" stroke="#f5e3c6" stroke-width="4" stroke-linecap="round" opacity="0.85">
    <path d="M34 52h44v18a16 16 0 0 1-16 16H50a16 16 0 0 1-16-16z"/>
    <path d="M78 56h7a9 9 0 0 1 0 18h-7"/>
    <path d="M46 40c0-5 4-5 4-10"/>
    <path d="M58 40c0-5 4-5 4-10"/>
    <path d="M70 40c0-5 4-5 4-10"/>
  </g>
</svg>
